<?xml version="1.0" standalone="no"?>
<!DOCTYPE svg PUBLIC "-//W3C//DTD SVG 20010904//EN"
 "http://www.w3.org/TR/2001/REC-SVG-20010904/DTD/svg10.dtd">
<svg version="1.0" xmlns="http://www.w3.org/2000/svg"
 width="427.000000pt" height="427.000000pt" viewBox="0 0 427.000000 427.000000"
 preserveAspectRatio="xMidYMid meet">
<metadata>
Created by potrace 1.14, written by Peter Selinger 2001-2017
</metadata>
<g transform="translate(0.000000,427.000000) scale(0.100000,-0.100000)"
fill="#000000" stroke="none">
<path d="M1879 4001 c7 -5 11 -13 7 -19 -4 -6 2 -8 15 -5 12 4 25 0 30 -8 7
-11 9 -11 9 3 0 9 -13 21 -31 27 -38 13 -49 14 -30 2z"/>
<path d="M1784 3972 c-9 -5 -8 -11 2 -20 8 -7 14 -11 14 -8 0 2 3 11 6 20 6
17 -3 21 -22 8z"/>
<path d="M1955 3970 c-6 -9 29 -51 41 -49 3 0 8 -2 12 -5 5 -6 -13 -10 -30 -7
-5 0 -8 -13 -8 -29 0 -20 -10 -41 -26 -58 -15 -15 -23 -21 -20 -14 5 9 -3 11
-33 9 -24 -2 -41 1 -41 7 0 6 -4 5 -8 -2 -6 -9 -12 -5 -22 13 -9 17 -19 24
-29 20 -9 -4 -20 -7 -26 -8 -5 -1 -15 -9 -22 -17 -7 -8 -13 -10 -13 -5 0 6 -4
3 -10 -5 -5 -8 -12 -11 -15 -8 -4 4 -3 13 1 20 19 30 11 37 -17 17 -16 -11
-29 -23 -29 -27 0 -3 5 -1 12 6 19 19 29 14 16 -7 -6 -11 -18 -17 -26 -13 -10
3 -13 1 -8 -6 3 -6 1 -14 -6 -18 -7 -4 -10 -4 -6 1 4 4 3 14 -3 21 -8 9 -2 20
20 40 17 15 31 32 31 38 0 6 -8 2 -18 -10 -9 -11 -29 -28 -44 -37 -15 -9 -33
-27 -39 -39 -12 -22 -11 -22 6 -8 17 14 18 13 10 -5 -4 -11 -8 -28 -9 -37 0
-10 -4 -18 -9 -18 -4 0 -6 -4 -2 -9 3 -5 1 -12 -5 -16 -6 -4 -8 -10 -5 -15 3
-5 -1 -12 -9 -17 -8 -4 -16 -21 -18 -38 -2 -17 -8 -29 -15 -27 -7 1 -13 -6
-13 -15 0 -15 -2 -14 -15 3 -10 12 -13 13 -10 3 3 -8 -3 -25 -14 -37 -15 -19
-20 -20 -25 -7 -3 8 0 15 7 15 8 0 6 4 -3 10 -13 9 -13 10 0 10 9 0 11 3 5 8
-18 13 -15 37 6 50 17 11 20 11 17 -4 -2 -9 4 -19 12 -21 12 -4 12 -3 1 5 -10
7 -7 13 17 28 17 9 33 25 36 33 3 9 9 23 12 31 3 8 -1 5 -11 -8 -12 -16 -20
-20 -33 -13 -12 6 -24 5 -37 -5 -12 -9 -14 -14 -5 -14 11 0 11 -3 2 -12 -10
-10 -15 -10 -22 2 -8 12 -10 11 -10 -7 0 -12 -6 -24 -12 -26 -10 -4 -10 -8 0
-15 8 -5 14 -13 14 -17 0 -4 -6 -12 -14 -16 -7 -5 -8 -9 -2 -9 6 0 11 -7 11
-15 0 -9 -6 -14 -14 -11 -11 5 -11 1 -2 -16 10 -19 9 -20 -10 -15 -18 4 -20 3
-10 -9 6 -8 9 -17 5 -21 -3 -3 -6 0 -6 7 0 7 -3 10 -7 7 -3 -4 -13 -1 -21 6
-13 9 -14 9 -8 0 4 -7 5 -13 1 -13 -8 0 -29 53 -26 65 1 6 -4 4 -11 -4 -10
-11 -10 -14 0 -18 6 -3 12 -14 12 -26 -1 -20 -2 -20 -11 -4 -6 9 -14 15 -20
12 -5 -4 -9 -1 -9 5 0 7 -6 10 -12 7 -20 -7 -50 12 -41 26 4 7 0 7 -10 -2 -13
-10 -17 -10 -17 -1 0 7 -7 10 -15 7 -8 -4 -17 -2 -20 3 -11 17 -106 -7 -120
-30 -5 -9 -1 -10 15 -5 32 10 90 12 90 3 0 -5 -9 -8 -20 -8 -11 0 -19 -3 -18
-7 5 -19 -15 -74 -25 -70 -7 2 -18 -3 -25 -12 -8 -9 -11 -11 -9 -6 2 6 1 19
-4 30 -5 15 -7 10 -5 -17 1 -21 5 -41 9 -44 4 -4 7 -16 7 -26 0 -10 5 -18 11
-18 5 0 8 -4 4 -9 -3 -5 -1 -13 5 -16 8 -5 7 -11 -1 -21 -9 -11 -8 -14 6 -14
12 0 16 6 12 20 -3 10 1 27 9 37 13 17 13 17 14 1 0 -10 -4 -18 -10 -18 -5 0
-7 -7 -4 -15 4 -8 1 -21 -5 -29 -6 -7 -8 -16 -4 -19 3 -4 1 -7 -6 -7 -8 0 -11
-6 -7 -17 4 -10 4 -14 1 -11 -4 4 -18 3 -31 -2 -15 -6 -26 -5 -30 2 -5 7 -2 8
7 3 11 -7 12 -6 2 7 -7 8 -9 19 -5 23 4 5 1 5 -6 1 -7 -4 -10 -12 -7 -17 4 -5
1 -9 -5 -9 -6 0 -8 -4 -5 -10 10 -15 17 -52 19 -90 1 -19 4 -39 7 -45 4 -5 7
-26 8 -45 4 -70 6 -79 26 -94 19 -14 19 -15 -5 -12 -32 4 -80 27 -80 38 0 4
-6 8 -13 8 -7 0 -20 9 -30 20 -19 23 -24 65 -5 54 7 -4 8 -3 4 5 -4 6 -12 9
-17 5 -14 -8 -8 -84 7 -92 7 -4 14 -11 16 -17 6 -21 32 -43 44 -38 8 3 14 0
14 -5 0 -6 9 -9 20 -7 11 2 26 -3 34 -11 9 -9 16 -10 18 -3 2 6 12 -13 22 -43
10 -29 20 -60 24 -68 3 -8 6 -17 7 -20 1 -3 4 -12 8 -20 3 -8 8 -42 12 -75 7
-73 11 -102 20 -135 24 -92 27 -151 7 -173 -14 -16 -17 -36 -15 -107 1 -72 7
-102 32 -165 48 -119 81 -223 81 -254 0 -37 44 -85 70 -78 20 5 24 -7 23 -75
0 -10 5 -18 10 -18 6 0 7 -3 4 -6 -3 -4 -2 -15 3 -25 6 -10 11 -29 12 -43 1
-15 6 -26 10 -26 4 0 8 -11 8 -24 0 -14 5 -28 11 -31 6 -4 8 -13 5 -21 -3 -7
1 -17 9 -21 7 -5 14 -12 15 -18 4 -16 19 -49 32 -67 10 -14 7 -24 -17 -60 -29
-40 -36 -44 -150 -79 -66 -20 -141 -46 -167 -58 -27 -11 -48 -18 -48 -14 0 3
-6 1 -12 -5 -12 -9 -147 -61 -173 -66 -18 -4 -90 -28 -100 -35 -5 -3 -15 -6
-22 -7 -10 -2 -191 -56 -231 -69 -7 -3 -16 -5 -20 -6 -4 0 -15 -5 -24 -10 -17
-9 -18 -43 -18 -499 l0 -490 1605 0 1605 0 0 508 0 507 -27 11 c-24 10 -131
51 -208 80 -19 7 -31 10 -57 17 -7 2 -30 11 -52 20 -21 9 -45 17 -53 17 -7 0
-28 16 -46 36 -32 37 -37 42 -117 135 -58 67 -96 105 -149 149 -24 19 -48 40
-54 46 -7 5 -20 13 -30 17 -15 6 -17 15 -13 54 16 151 19 188 18 286 l-1 107
28 -5 c49 -8 58 14 66 165 7 130 7 314 1 355 -13 91 -19 106 -45 119 -18 10
-32 11 -43 5 -13 -7 -16 -5 -15 10 0 11 5 17 10 14 5 -3 8 5 7 18 -1 13 -1 26
0 29 7 20 7 39 -1 34 -5 -3 -9 3 -9 13 -1 10 -3 36 -5 58 -2 22 -1 31 2 21 3
-10 14 -28 24 -40 11 -11 17 -27 14 -35 -4 -11 -3 -11 9 -2 12 10 11 17 -5 49
-28 57 -37 85 -41 135 -1 15 -5 27 -8 27 -3 0 -6 16 -7 36 l-2 37 23 -22 c12
-11 25 -21 29 -21 4 0 -7 13 -23 29 -36 34 -39 46 -7 31 22 -11 22 -11 2 5
-11 9 -27 20 -35 25 -12 7 -12 12 0 35 15 29 50 53 50 35 0 -5 -7 -10 -16 -10
-8 0 -13 -4 -10 -9 4 -5 1 -11 -5 -13 -5 -2 -7 -11 -3 -21 5 -14 9 -15 21 -6
7 7 12 18 9 26 -3 8 1 16 9 19 12 5 12 9 -1 29 -9 13 -15 28 -15 32 0 4 -9 18
-19 31 -11 12 -16 22 -11 22 8 0 8 28 1 38 -2 1 -3 6 -4 11 0 5 -4 13 -8 17
-5 4 -8 18 -8 31 0 12 -4 23 -10 23 -5 0 -10 5 -10 11 0 5 4 8 8 5 5 -3 9 1 9
8 0 8 -8 11 -19 8 -12 -3 -18 1 -18 12 0 10 -4 14 -10 11 -5 -3 -10 3 -10 14
0 12 -6 21 -13 21 -8 0 -14 7 -14 15 0 9 6 14 14 11 7 -3 13 -3 13 0 0 3 -12
9 -28 15 -15 5 -33 22 -40 39 -9 19 -24 33 -40 37 -30 7 -65 41 -56 54 3 5 -2
9 -11 9 -10 0 -13 -5 -9 -12 4 -7 3 -8 -4 -4 -7 4 -12 12 -12 17 0 14 -22 33
-40 37 -8 1 -4 -6 10 -17 14 -11 22 -22 19 -25 -3 -4 -21 7 -40 23 -26 23 -29
29 -14 28 25 -2 30 42 6 51 -9 3 -22 14 -29 24 -8 11 -22 18 -31 16 -10 -2
-26 4 -36 12 -11 8 -16 10 -12 3 13 -21 -40 11 -68 41 -13 14 -32 27 -42 27
-34 2 -58 -3 -73 -16 -18 -15 -39 -9 -63 18 -9 11 -20 17 -23 14 -4 -3 1 -13
10 -22 18 -19 21 -29 6 -20 -6 4 -17 1 -25 -5 -8 -7 -15 -9 -15 -4 0 4 -6 -1
-14 -11 -13 -18 -14 -17 -30 7 -10 15 -25 29 -34 32 -13 5 -12 2 3 -10 l20
-17 -20 8 c-11 4 -28 7 -37 7 -10 0 -20 4 -24 9 -3 5 -2 9 3 8 19 -3 34 2 29
10 -9 14 17 20 70 16 51 -4 44 9 -10 19 -16 3 -31 7 -34 10 -2 3 -13 1 -23 -4
-12 -7 -20 -7 -24 0 -4 6 -11 8 -16 5 -12 -8 -69 26 -63 37 3 5 0 7 -8 6 -7
-2 -12 3 -10 10 2 14 -4 16 -13 2z m61 -88 c-17 -16 -18 -16 -5 5 7 12 15 20
18 17 3 -2 -3 -12 -13 -22z m394 -47 c0 -1 -6 -8 -14 -14 -11 -9 -16 -9 -22 0
-5 8 -3 9 6 4 8 -5 11 -4 7 2 -3 5 -22 8 -41 7 -41 -4 -46 3 -14 15 19 7 78
-4 78 -14z m-617 -24 c4 -15 0 -19 -15 -16 -27 6 -36 15 -15 15 10 0 17 5 17
10 0 17 7 11 13 -9z m457 4 c-7 -8 -19 -15 -27 -15 -8 0 -11 -4 -8 -10 3 -6
-1 -7 -10 -4 -22 9 -14 26 15 31 13 2 26 6 29 8 11 12 12 4 1 -10z m147 -31
c21 -13 34 -32 14 -20 -12 8 -42 -4 -36 -13 2 -4 -2 -8 -10 -8 -8 0 -15 4 -15
9 0 4 -13 8 -29 8 -20 0 -30 6 -34 20 -3 10 0 21 7 24 18 8 79 -4 103 -20z
m-123 0 c3 -8 2 -12 -4 -9 -6 3 -10 1 -10 -6 0 -7 -3 -10 -6 -6 -7 6 2 37 10
37 2 0 7 -7 10 -16z m-451 -11 c-7 -2 -19 -2 -25 0 -7 3 -2 5 12 5 14 0 19 -2
13 -5z m-80 -17 c15 -4 25 -11 22 -16 -4 -6 -11 -8 -16 -5 -5 4 -9 3 -9 -2 0
-4 -16 -8 -35 -9 -19 0 -35 3 -35 8 0 5 -6 6 -12 3 -7 -4 -3 3 10 14 13 11 28
18 35 16 7 -2 25 -6 40 -9z m698 -29 c-10 -9 -11 -8 -5 6 3 10 9 15 12 12 3
-3 0 -11 -7 -18z m95 -15 c-3 -3 0 -12 6 -21 11 -14 10 -14 -7 0 -11 9 -26 14
-34 11 -12 -4 -12 -3 0 10 8 9 20 13 27 11 7 -3 10 -8 8 -11z m-1014 -26 c6 4
9 1 6 -7 -7 -22 -37 -24 -33 -2 5 28 6 29 12 15 2 -6 9 -9 15 -6z m1258 -180
c0 -6 -4 -5 -9 3 -7 11 -9 11 -14 0 -3 -8 -6 0 -6 16 0 29 0 29 14 11 8 -11
15 -25 15 -30z m-1560 24 c13 -8 13 -10 -2 -10 -9 0 -20 5 -23 10 -8 13 5 13
25 0z m48 -8 c7 -1 23 -3 36 -4 12 -1 23 -7 23 -14 0 -15 -52 -11 -72 6 -8 7
-15 18 -15 24 0 7 3 7 8 1 4 -5 13 -11 20 -13z m-93 -79 c-8 -23 -22 -6 -19
24 3 40 4 41 15 14 5 -14 7 -31 4 -38z m70 27 c8 -13 -5 -13 -25 0 -13 8 -13
10 2 10 9 0 20 -4 23 -10z m65 -5 c0 -8 -2 -15 -4 -15 -2 0 -6 7 -10 15 -3 8
-1 15 4 15 6 0 10 -7 10 -15z m-185 -41 c0 -5 4 -15 8 -21 5 -8 4 -13 -3 -13
-6 0 -8 -4 -5 -10 3 -5 1 -10 -4 -10 -6 0 -12 6 -12 13 -1 6 -3 22 -4 35 -1
13 2 21 9 19 6 -2 11 -8 11 -13z m1706 -17 c-13 -13 -26 -3 -16 12 3 6 11 8
17 5 6 -4 6 -10 -1 -17z m124 -220 c1 -21 -17 -25 -36 -9 -17 15 -17 16 -1 28
18 13 37 4 37 -19z m-1925 -231 c0 -2 -7 -7 -16 -10 -8 -3 -12 -2 -9 4 6 10
25 14 25 6z"/>
<path d="M1755 3930 c-3 -5 -1 -10 4 -10 6 0 11 5 11 10 0 6 -2 10 -4 10 -3 0
-8 -4 -11 -10z"/>
<path d="M1730 3885 c0 -8 2 -15 4 -15 2 0 6 7 10 15 3 8 1 15 -4 15 -6 0 -10
-7 -10 -15z"/>
<path d="M1940 3885 c-6 -8 -9 -18 -6 -24 3 -5 0 -11 -6 -14 -10 -4 -10 -7 -1
-16 7 -6 11 -8 8 -4 -3 3 3 15 12 26 10 11 12 17 6 13 -16 -9 -17 6 -1 22 7 7
9 12 6 12 -3 0 -11 -7 -18 -15z"/>
<path d="M1535 3749 c-11 -16 -1 -19 13 -3 7 8 8 14 3 14 -5 0 -13 -5 -16 -11z"/>
<path d="M1364 3568 c0 -10 1 -18 3 -18 1 0 7 8 12 18 7 13 6 19 -2 19 -7 0
-13 -9 -13 -19z"/>
<path d="M1379 3543 c-13 -16 -12 -17 4 -4 16 13 21 21 13 21 -2 0 -10 -8 -17
-17z"/>
<path d="M1066 3504 c-5 -14 -4 -15 9 -4 17 14 19 20 6 20 -5 0 -12 -7 -15
-16z"/>
<path d="M2868 3453 c7 -3 16 -2 19 1 4 3 -2 6 -13 5 -11 0 -14 -3 -6 -6z"/>
<path d="M1077 3286 c-4 -11 -5 -21 -2 -24 3 -3 5 0 5 7 0 7 4 10 9 6 5 -3 13
0 17 6 4 7 3 9 -4 5 -5 -3 -12 -1 -14 6 -3 7 -7 5 -11 -6z"/>
<path d="M2961 3263 c8 -13 17 -23 21 -23 5 0 8 -7 8 -15 0 -8 5 -15 10 -15 7
0 7 6 1 19 -6 10 -8 21 -6 25 3 3 2 4 -2 1 -3 -3 -15 3 -26 12 -19 18 -19 17
-6 -4z"/>
<path d="M1020 3209 c0 -5 5 -7 10 -4 6 3 10 8 10 11 0 2 -4 4 -10 4 -5 0 -10
-5 -10 -11z"/>
<path d="M2985 3191 c-3 -6 3 -9 14 -8 11 0 17 5 15 9 -7 11 -22 10 -29 -1z"/>
<path d="M1007 3139 c7 -7 15 -10 18 -7 3 3 -2 9 -12 12 -14 6 -15 5 -6 -5z"/>
<path d="M971 3117 c-8 -10 -7 -14 4 -14 8 0 12 4 9 8 -2 4 2 10 8 12 8 4 9 6
2 6 -6 1 -17 -5 -23 -12z"/>
<path d="M2994 3069 c-3 -6 -1 -16 4 -21 8 -8 11 -5 9 11 -1 24 -3 25 -13 10z"/>
<path d="M2999 2983 c-13 -16 -12 -17 4 -4 16 13 21 21 13 21 -2 0 -10 -8 -17
-17z"/>
</g>
</svg>
